<?xml version="1.0" encoding="UTF-8" standalone="no"?>
<!-- Created with Inkscape (http://www.inkscape.org/) -->

<svg
   width="400.12845"
   height="363.77472"
   viewBox="0 0 400.12845 363.77472"
   version="1.1"
   id="svg1"
   xml:space="preserve"
   xmlns="http://www.w3.org/2000/svg"
   xmlns:svg="http://www.w3.org/2000/svg"><defs
     id="defs1" /><path
     style="fill:#005050"
     d="m 328.62846,362.37259 c -6.8719,-2.179 -12.157,-5.37916 -15.6789,-9.49372 -1.8665,-2.18067 -15.4093,-21.97565 -30.0949,-43.98885 l -26.7012,-40.02399 11.7375,-17.02258 c 6.4556,-9.36242 19.3608,-28.17046 28.6782,-41.79565 9.3174,-13.62518 17.6826,-25.75438 18.5894,-26.95376 1.6216,-2.14488 1.8217,-1.93141 12.1856,13 5.7953,8.34938 24.5426,36.2086 41.6606,61.90937 l 31.1237,46.72867 v 29.52133 29.52132 l -33.75,-0.0669 c -24.327,-0.0482 -34.8668,-0.42102 -37.75,-1.33525 z M 1.38696,285.11192 C 1.25414,242.85147 0.88774,175.19973 0.57274,134.77473 L 0,61.274725 l 2.0604,2.5 c 4.99343,6.0588 33.74523,49.831195 61.41527,93.500005 9.75796,15.4 22.55984,35.425 28.44861,44.5 l 10.70687,16.5 -0.57561,55.5 c -0.60538,58.37009 -0.59972,58.29681 -5.34247,69.27228 -2.03713,4.71425 -7.9561,11.34765 -12.00947,13.45903 -7.27619,3.79013 -14.24572,4.49676 -49.07516,4.97562 l -34,0.46745 z"
     id="mk-logo-back-side" /><path
     style="fill:#00c8b5"
     d="m 190.67306,351.91492 c -1.6254,-2.5521 -8.3896,-12.96519 -15.0315,-23.14019 -6.6419,-10.175 -15.212,-23.34246 -19.0447,-29.26102 -3.8326,-5.91856 -12.7721,-19.64356 -19.8654,-30.5 -7.0934,-10.85644 -15.6879,-24.01398 -19.099,-29.23898 -3.4111,-5.225 -11.0699,-16.925 -17.01948,-26 -5.9496,-9.075 -15.30466,-23.475 -20.78901,-32 -5.48436,-8.525 -11.42755,-17.75 -13.2071,-20.5 -1.77954,-2.75 -7.64609,-11.975 -13.03676,-20.5 C 44.93074,127.09632 36.17608,113.56739 20.2806,89.315675 17.74241,85.443155 12.16982,77.246045 7.89707,71.099875 L 0.12844,59.925015 V 31.452525 2.9800353 l 6.33192,-1.10265 c 22.44141,-3.908 45.00596,1.15547 65.66395,14.7349597 8.49322,5.583 24.68753,22.55147 32.27085,33.8135 5.5983,8.31414 19.009,27.65406 55.9066,80.624695 1.8297,2.62669 4.8214,6.90169 6.6482,9.5 1.8268,2.59831 8.488,12.26169 14.8027,21.47419 6.3146,9.2125 11.8732,16.75 12.3525,16.75 0.4792,0 3.9726,-4.6125 7.7631,-10.25 3.7905,-5.6375 10.8924,-16.1 15.7819,-23.25 4.8896,-7.15 18.0234,-26.725 29.1861,-43.5 39.0787,-58.726045 42.9804,-64.393795 56.6011,-82.220475 6.7405,-8.82194 9.2052,-11.2651197 13.9173,-13.7959797 8.4495,-4.53813 20.132,-6.34025996 36.2738,-5.59553996 7.15,0.32987 19.8625,0.89530996 28.25,1.25652996 l 15.25,0.65676 V 29.458615 c 0,30.01295 0.2657,28.46317 -6.7767,39.52242 -14.3796,22.58161 -22.1923,34.481385 -39.3968,60.006955 -38.8698,57.66965 -64.2518,94.82375 -96.0272,140.56454 -7.5354,10.84721 -15.1854,21.87573 -17,24.50783 -1.8146,2.63209 -4.8743,6.99079 -6.7993,9.686 -1.925,2.69522 -10.7,15.31321 -19.5,28.03998 -8.8,12.72678 -16.45,23.50616 -17,23.95419 -0.5973,0.48654 -2.1901,-1.05405 -3.9554,-3.82561 z"
     id="mk-logo-front-side" /></svg>
